<svg width="24" height="24" viewBox="0 0 24 24" fill="none" xmlns="http://www.w3.org/2000/svg">
<circle fill="none" cx="12" cy="12" r="8" stroke="currentColor" stroke-width="1.5" stroke-linecap="round" stroke-linejoin="round"/>
<path opacity="0.4" fill-rule="evenodd" clip-rule="evenodd" d="M5.81281 5.81281C6.1057 5.51992 6.58058 5.51992 6.87347 5.81281L9.2132 8.15254C10.8703 6.94915 13.1297 6.94915 14.7868 8.15254L16.773 6.16636C17.0659 5.87347 17.5407 5.87347 17.8336 6.16636C18.1265 6.45926 18.1265 6.93413 17.8336 7.22702L15.8474 9.2132C17.0508 10.8703 17.0508 13.1297 15.8474 14.7868L17.8336 16.773C18.1265 17.0659 18.1265 17.5407 17.8336 17.8336C17.5407 18.1265 17.0659 18.1265 16.773 17.8336L14.7868 15.8474C13.1297 17.0508 10.8703 17.0508 9.2132 15.8474L7.22702 17.8336C6.93413 18.1265 6.45926 18.1265 6.16636 17.8336C5.87347 17.5407 5.87347 17.0659 6.16636 16.773L8.15254 14.7868C6.94915 13.1297 6.94915 10.8703 8.15254 9.2132L5.81281 6.87347C5.51992 6.58058 5.51992 6.1057 5.81281 5.81281ZM14.2981 9.7019C13.0289 8.43269 10.9711 8.43269 9.7019 9.7019C8.43269 10.9711 8.43269 13.0289 9.7019 14.2981C10.9711 15.5673 13.0289 15.5673 14.2981 14.2981C15.5673 13.0289 15.5673 10.9711 14.2981 9.7019Z" fill="#131F38"/>
</svg>
