<svg width="20" height="20" viewBox="0 0 20 20" fill="none"
    xmlns="http://www.w3.org/2000/svg">
    <path fill="none" d="M5.81982 16.2067L5.63566 16.2287C4.80382 16.3509 4.03042 15.7756 3.90823 14.9437C3.88798 14.8058 3.88675 14.6658 3.9046 14.5276C4.05557 13.3581 3.59543 12.1978 2.69517 11.4496L2.5494 11.3349C1.87479 10.8331 1.73471 9.87945 2.23652 9.20484C2.29198 9.13029 2.35408 9.06105 2.42203 8.99795L2.52822 8.90801C3.4619 8.18784 3.95698 7.04201 3.8495 5.87634L3.82749 5.69218C3.70531 4.86033 4.2806 4.08694 5.11245 3.96475C5.25035 3.94449 5.39038 3.94327 5.52861 3.96112C6.7596 4.12004 7.98046 3.60181 8.72126 2.60592C9.22307 1.93131 10.1767 1.79123 10.8513 2.29304C10.9632 2.37622 11.0631 2.47437 11.1482 2.58474C11.9063 3.56755 13.136 4.06439 14.364 3.88401C15.1959 3.76183 15.9692 4.33712 16.0914 5.16897C16.1117 5.30687 16.1129 5.44689 16.0951 5.58513C15.9441 6.75457 16.4042 7.91487 17.3045 8.66312L17.4503 8.77778C18.1249 9.27959 18.265 10.2333 17.7632 10.9079C17.7077 10.9824 17.6456 11.0517 17.5776 11.1148L17.4715 11.2047C16.5378 11.9249 16.0427 13.0707 16.1502 14.2364L16.1722 14.4205C16.2944 15.2524 15.7191 16.0258 14.8872 16.148C14.7493 16.1682 14.6093 16.1694 14.4711 16.1516C13.2401 15.9927 12.0192 16.5109 11.2784 17.5068C10.7766 18.1814 9.82293 18.3215 9.14832 17.8197C9.03649 17.7365 8.93661 17.6383 8.85149 17.528C8.13132 16.5943 6.98549 16.0992 5.81982 16.2067Z" stroke="currentColor" stroke-width="1.5" stroke-linecap="round" stroke-linejoin="round"/>
    <path fill="none" d="M10.0006 12.7311C11.509 12.7311 12.7317 11.5084 12.7317 10C12.7317 8.49168 11.509 7.26892 10.0006 7.26892C8.49229 7.26892 7.26953 8.49168 7.26953 10C7.26953 11.5084 8.49229 12.7311 10.0006 12.7311Z" stroke="currentColor" stroke-width="1.5" stroke-linecap="round" stroke-linejoin="round"/>
</svg>
